<?xml version="1.0" encoding="UTF-8" standalone="no"?>
<!DOCTYPE svg PUBLIC "-//W3C//DTD SVG 1.1//EN"
 "http://www.w3.org/Graphics/SVG/1.1/DTD/svg11.dtd">
<!-- Generated by graphviz version 2.44.0 (0)
 -->
<!-- Pages: 1 -->
<svg width="2532pt" height="404pt"
 viewBox="0.00 0.00 2531.63 404.00" xmlns="http://www.w3.org/2000/svg" xmlns:xlink="http://www.w3.org/1999/xlink">
<g id="graph0" class="graph" transform="scale(1 1) rotate(0) translate(4 400)">
<polygon fill="white" stroke="transparent" points="-4,4 -4,-400 2527.63,-400 2527.63,4 -4,4"/>
<!-- [root] aws_instance.back_east (expand) -->
<g id="node1" class="node">
<title>[root] aws_instance.back_east (expand)</title>
<polygon fill="none" stroke="black" points="1017.13,-180 853.13,-180 853.13,-144 1017.13,-144 1017.13,-180"/>
<text text-anchor="middle" x="935.13" y="-158.3" font-family="Times-Roman" font-size="14.00">aws_instance.back_east</text>
</g>
<!-- [root] data.aws_ami.myami_east (expand) -->
<g id="node5" class="node">
<title>[root] data.aws_ami.myami_east (expand)</title>
<polygon fill="none" stroke="black" points="844.13,-108 666.13,-108 666.13,-72 844.13,-72 844.13,-108"/>
<text text-anchor="middle" x="755.13" y="-86.3" font-family="Times-Roman" font-size="14.00">data.aws_ami.myami_east</text>
</g>
<!-- [root] aws_instance.back_east (expand)&#45;&gt;[root] data.aws_ami.myami_east (expand) -->
<g id="edge1" class="edge">
<title>[root] aws_instance.back_east (expand)&#45;&gt;[root] data.aws_ami.myami_east (expand)</title>
<path fill="none" stroke="black" d="M891.1,-143.88C866.16,-134.18 834.79,-121.98 808.47,-111.74"/>
<polygon fill="black" stroke="black" points="809.61,-108.43 799.02,-108.07 807.07,-114.95 809.61,-108.43"/>
</g>
<!-- [root] data.aws_availability_zones.zone_east (expand) -->
<g id="node7" class="node">
<title>[root] data.aws_availability_zones.zone_east (expand)</title>
<polygon fill="none" stroke="black" points="610.13,-108 360.13,-108 360.13,-72 610.13,-72 610.13,-108"/>
<text text-anchor="middle" x="485.13" y="-86.3" font-family="Times-Roman" font-size="14.00">data.aws_availability_zones.zone_east</text>
</g>
<!-- [root] aws_instance.back_east (expand)&#45;&gt;[root] data.aws_availability_zones.zone_east (expand) -->
<g id="edge2" class="edge">
<title>[root] aws_instance.back_east (expand)&#45;&gt;[root] data.aws_availability_zones.zone_east (expand)</title>
<path fill="none" stroke="black" d="M853.11,-148.24C783.59,-137.43 682.95,-121.77 604.49,-109.57"/>
<polygon fill="black" stroke="black" points="604.97,-106.1 594.55,-108.02 603.89,-113.02 604.97,-106.1"/>
</g>
<!-- [root] var.ec2_instance_count -->
<g id="node11" class="node">
<title>[root] var.ec2_instance_count</title>
<polygon fill="none" stroke="black" points="1532.13,-108 1380.13,-108 1380.13,-72 1538.13,-72 1538.13,-102 1532.13,-108"/>
<polyline fill="none" stroke="black" points="1532.13,-108 1532.13,-102 "/>
<polyline fill="none" stroke="black" points="1538.13,-102 1532.13,-102 "/>
<text text-anchor="middle" x="1459.13" y="-86.3" font-family="Times-Roman" font-size="14.00">var.ec2_instance_count</text>
</g>
<!-- [root] aws_instance.back_east (expand)&#45;&gt;[root] var.ec2_instance_count -->
<g id="edge4" class="edge">
<title>[root] aws_instance.back_east (expand)&#45;&gt;[root] var.ec2_instance_count</title>
<path fill="none" stroke="black" d="M1017.33,-152.74C1102.93,-143.74 1241.11,-128.12 1369.97,-108.12"/>
<polygon fill="black" stroke="black" points="1370.68,-111.56 1380.02,-106.55 1369.6,-104.64 1370.68,-111.56"/>
</g>
<!-- [root] var.ec2_instance_type -->
<g id="node13" class="node">
<title>[root] var.ec2_instance_type</title>
<polygon fill="none" stroke="black" points="1355.63,-108 1210.63,-108 1210.63,-72 1361.63,-72 1361.63,-102 1355.63,-108"/>
<polyline fill="none" stroke="black" points="1355.63,-108 1355.63,-102 "/>
<polyline fill="none" stroke="black" points="1361.63,-102 1355.63,-102 "/>
<text text-anchor="middle" x="1286.13" y="-86.3" font-family="Times-Roman" font-size="14.00">var.ec2_instance_type</text>
</g>
<!-- [root] aws_instance.back_east (expand)&#45;&gt;[root] var.ec2_instance_type -->
<g id="edge5" class="edge">
<title>[root] aws_instance.back_east (expand)&#45;&gt;[root] var.ec2_instance_type</title>
<path fill="none" stroke="black" d="M1017.42,-144.59C1072.47,-133.61 1144.76,-119.19 1200.49,-108.08"/>
<polygon fill="black" stroke="black" points="1201.22,-111.5 1210.34,-106.11 1199.85,-104.64 1201.22,-111.5"/>
</g>
<!-- [root] local.backend_east (expand) -->
<g id="node16" class="node">
<title>[root] local.backend_east (expand)</title>
<ellipse fill="none" stroke="black" cx="1008.13" cy="-90" rx="145.67" ry="18"/>
<text text-anchor="middle" x="1008.13" y="-86.3" font-family="Times-Roman" font-size="14.00">[root] local.backend_east (expand)</text>
</g>
<!-- [root] aws_instance.back_east (expand)&#45;&gt;[root] local.backend_east (expand) -->
<g id="edge3" class="edge">
<title>[root] aws_instance.back_east (expand)&#45;&gt;[root] local.backend_east (expand)</title>
<path fill="none" stroke="black" d="M953.17,-143.7C962.19,-135.05 973.25,-124.45 983.07,-115.03"/>
<polygon fill="black" stroke="black" points="985.5,-117.55 990.29,-108.1 980.65,-112.5 985.5,-117.55"/>
</g>
<!-- [root] aws_instance.back_west (expand) -->
<g id="node2" class="node">
<title>[root] aws_instance.back_west (expand)</title>
<polygon fill="none" stroke="black" points="1858.13,-180 1692.13,-180 1692.13,-144 1858.13,-144 1858.13,-180"/>
<text text-anchor="middle" x="1775.13" y="-158.3" font-family="Times-Roman" font-size="14.00">aws_instance.back_west</text>
</g>
<!-- [root] data.aws_ami.myami_west (expand) -->
<g id="node6" class="node">
<title>[root] data.aws_ami.myami_west (expand)</title>
<polygon fill="none" stroke="black" points="2320.13,-108 2140.13,-108 2140.13,-72 2320.13,-72 2320.13,-108"/>
<text text-anchor="middle" x="2230.13" y="-86.3" font-family="Times-Roman" font-size="14.00">data.aws_ami.myami_west</text>
</g>
<!-- [root] aws_instance.back_west (expand)&#45;&gt;[root] data.aws_ami.myami_west (expand) -->
<g id="edge6" class="edge">
<title>[root] aws_instance.back_west (expand)&#45;&gt;[root] data.aws_ami.myami_west (expand)</title>
<path fill="none" stroke="black" d="M1858.29,-149.15C1928.16,-139.08 2030.93,-123.97 2130.14,-108.14"/>
<polygon fill="black" stroke="black" points="2130.71,-111.59 2140.03,-106.56 2129.61,-104.68 2130.71,-111.59"/>
</g>
<!-- [root] data.aws_availability_zones.zone_west (expand) -->
<g id="node8" class="node">
<title>[root] data.aws_availability_zones.zone_west (expand)</title>
<polygon fill="none" stroke="black" points="2122.13,-108 1870.13,-108 1870.13,-72 2122.13,-72 2122.13,-108"/>
<text text-anchor="middle" x="1996.13" y="-86.3" font-family="Times-Roman" font-size="14.00">data.aws_availability_zones.zone_west</text>
</g>
<!-- [root] aws_instance.back_west (expand)&#45;&gt;[root] data.aws_availability_zones.zone_west (expand) -->
<g id="edge7" class="edge">
<title>[root] aws_instance.back_west (expand)&#45;&gt;[root] data.aws_availability_zones.zone_west (expand)</title>
<path fill="none" stroke="black" d="M1828.91,-143.97C1860.06,-134.1 1899.45,-121.62 1932.18,-111.25"/>
<polygon fill="black" stroke="black" points="1933.63,-114.47 1942.11,-108.11 1931.52,-107.79 1933.63,-114.47"/>
</g>
<!-- [root] aws_instance.back_west (expand)&#45;&gt;[root] var.ec2_instance_count -->
<g id="edge9" class="edge">
<title>[root] aws_instance.back_west (expand)&#45;&gt;[root] var.ec2_instance_count</title>
<path fill="none" stroke="black" d="M1698.23,-143.97C1652.27,-133.78 1593.74,-120.82 1546.09,-110.26"/>
<polygon fill="black" stroke="black" points="1546.62,-106.8 1536.1,-108.05 1545.1,-113.63 1546.62,-106.8"/>
</g>
<!-- [root] aws_instance.back_west (expand)&#45;&gt;[root] var.ec2_instance_type -->
<g id="edge10" class="edge">
<title>[root] aws_instance.back_west (expand)&#45;&gt;[root] var.ec2_instance_type</title>
<path fill="none" stroke="black" d="M1692.1,-151.75C1612.57,-142.52 1488.99,-127.2 1372.27,-108.13"/>
<polygon fill="black" stroke="black" points="1372.52,-104.62 1362.08,-106.45 1371.38,-111.53 1372.52,-104.62"/>
</g>
<!-- [root] var.multi&#45;region&#45;deployment -->
<g id="node14" class="node">
<title>[root] var.multi&#45;region&#45;deployment</title>
<polygon fill="none" stroke="black" points="2517.63,-108 2338.63,-108 2338.63,-72 2523.63,-72 2523.63,-102 2517.63,-108"/>
<polyline fill="none" stroke="black" points="2517.63,-108 2517.63,-102 "/>
<polyline fill="none" stroke="black" points="2523.63,-102 2517.63,-102 "/>
<text text-anchor="middle" x="2431.13" y="-86.3" font-family="Times-Roman" font-size="14.00">var.multi&#45;region&#45;deployment</text>
</g>
<!-- [root] aws_instance.back_west (expand)&#45;&gt;[root] var.multi&#45;region&#45;deployment -->
<g id="edge11" class="edge">
<title>[root] aws_instance.back_west (expand)&#45;&gt;[root] var.multi&#45;region&#45;deployment</title>
<path fill="none" stroke="black" d="M1858.4,-154.86C1964.9,-146.59 2155.25,-130.44 2328.53,-108.02"/>
<polygon fill="black" stroke="black" points="2329.14,-111.47 2338.6,-106.71 2328.24,-104.53 2329.14,-111.47"/>
</g>
<!-- [root] local.backend_west (expand) -->
<g id="node17" class="node">
<title>[root] local.backend_west (expand)</title>
<ellipse fill="none" stroke="black" cx="1704.13" cy="-90" rx="147.57" ry="18"/>
<text text-anchor="middle" x="1704.13" y="-86.3" font-family="Times-Roman" font-size="14.00">[root] local.backend_west (expand)</text>
</g>
<!-- [root] aws_instance.back_west (expand)&#45;&gt;[root] local.backend_west (expand) -->
<g id="edge8" class="edge">
<title>[root] aws_instance.back_west (expand)&#45;&gt;[root] local.backend_west (expand)</title>
<path fill="none" stroke="black" d="M1757.58,-143.7C1748.89,-135.14 1738.27,-124.66 1728.78,-115.3"/>
<polygon fill="black" stroke="black" points="1731.06,-112.63 1721.48,-108.1 1726.14,-117.62 1731.06,-112.63"/>
</g>
<!-- [root] aws_instance.front_east (expand) -->
<g id="node3" class="node">
<title>[root] aws_instance.front_east (expand)</title>
<polygon fill="none" stroke="black" points="719.13,-252 557.13,-252 557.13,-216 719.13,-216 719.13,-252"/>
<text text-anchor="middle" x="638.13" y="-230.3" font-family="Times-Roman" font-size="14.00">aws_instance.front_east</text>
</g>
<!-- [root] aws_instance.front_east (expand)&#45;&gt;[root] aws_instance.back_east (expand) -->
<g id="edge12" class="edge">
<title>[root] aws_instance.front_east (expand)&#45;&gt;[root] aws_instance.back_east (expand)</title>
<path fill="none" stroke="black" d="M710.4,-215.97C753.42,-205.83 808.15,-192.93 852.83,-182.4"/>
<polygon fill="black" stroke="black" points="853.86,-185.75 862.79,-180.05 852.25,-178.94 853.86,-185.75"/>
</g>
<!-- [root] local.frontend_east (expand) -->
<g id="node18" class="node">
<title>[root] local.frontend_east (expand)</title>
<ellipse fill="none" stroke="black" cx="638.13" cy="-162" rx="144.87" ry="18"/>
<text text-anchor="middle" x="638.13" y="-158.3" font-family="Times-Roman" font-size="14.00">[root] local.frontend_east (expand)</text>
</g>
<!-- [root] aws_instance.front_east (expand)&#45;&gt;[root] local.frontend_east (expand) -->
<g id="edge13" class="edge">
<title>[root] aws_instance.front_east (expand)&#45;&gt;[root] local.frontend_east (expand)</title>
<path fill="none" stroke="black" d="M638.13,-215.7C638.13,-207.98 638.13,-198.71 638.13,-190.11"/>
<polygon fill="black" stroke="black" points="641.63,-190.1 638.13,-180.1 634.63,-190.1 641.63,-190.1"/>
</g>
<!-- [root] aws_instance.front_west (expand) -->
<g id="node4" class="node">
<title>[root] aws_instance.front_west (expand)</title>
<polygon fill="none" stroke="black" points="1486.13,-252 1322.13,-252 1322.13,-216 1486.13,-216 1486.13,-252"/>
<text text-anchor="middle" x="1404.13" y="-230.3" font-family="Times-Roman" font-size="14.00">aws_instance.front_west</text>
</g>
<!-- [root] aws_instance.front_west (expand)&#45;&gt;[root] aws_instance.back_west (expand) -->
<g id="edge14" class="edge">
<title>[root] aws_instance.front_west (expand)&#45;&gt;[root] aws_instance.back_west (expand)</title>
<path fill="none" stroke="black" d="M1486.47,-217.46C1544.4,-206.53 1622.02,-191.89 1682.18,-180.54"/>
<polygon fill="black" stroke="black" points="1682.88,-183.97 1692.06,-178.67 1681.58,-177.09 1682.88,-183.97"/>
</g>
<!-- [root] local.frontend_west (expand) -->
<g id="node19" class="node">
<title>[root] local.frontend_west (expand)</title>
<ellipse fill="none" stroke="black" cx="1368.13" cy="-162" rx="146.47" ry="18"/>
<text text-anchor="middle" x="1368.13" y="-158.3" font-family="Times-Roman" font-size="14.00">[root] local.frontend_west (expand)</text>
</g>
<!-- [root] aws_instance.front_west (expand)&#45;&gt;[root] local.frontend_west (expand) -->
<g id="edge15" class="edge">
<title>[root] aws_instance.front_west (expand)&#45;&gt;[root] local.frontend_west (expand)</title>
<path fill="none" stroke="black" d="M1395.23,-215.7C1391.13,-207.73 1386.18,-198.1 1381.64,-189.26"/>
<polygon fill="black" stroke="black" points="1384.61,-187.4 1376.93,-180.1 1378.39,-190.6 1384.61,-187.4"/>
</g>
<!-- [root] provider[&quot;registry.terraform.io/hashicorp/aws&quot;] -->
<g id="node9" class="node">
<title>[root] provider[&quot;registry.terraform.io/hashicorp/aws&quot;]</title>
<polygon fill="none" stroke="black" points="661.13,-36 392.84,-18 661.13,0 929.42,-18 661.13,-36"/>
<text text-anchor="middle" x="661.13" y="-14.3" font-family="Times-Roman" font-size="14.00">provider[&quot;registry.terraform.io/hashicorp/aws&quot;]</text>
</g>
<!-- [root] data.aws_ami.myami_east (expand)&#45;&gt;[root] provider[&quot;registry.terraform.io/hashicorp/aws&quot;] -->
<g id="edge16" class="edge">
<title>[root] data.aws_ami.myami_east (expand)&#45;&gt;[root] provider[&quot;registry.terraform.io/hashicorp/aws&quot;]</title>
<path fill="none" stroke="black" d="M731.89,-71.7C719.41,-62.4 703.88,-50.84 690.56,-40.91"/>
<polygon fill="black" stroke="black" points="692.28,-37.84 682.17,-34.67 688.1,-43.45 692.28,-37.84"/>
</g>
<!-- [root] provider[&quot;registry.terraform.io/hashicorp/aws&quot;].myprovider2 -->
<g id="node10" class="node">
<title>[root] provider[&quot;registry.terraform.io/hashicorp/aws&quot;].myprovider2</title>
<polygon fill="none" stroke="black" points="2113.13,-36 1772.95,-18 2113.13,0 2453.3,-18 2113.13,-36"/>
<text text-anchor="middle" x="2113.13" y="-14.3" font-family="Times-Roman" font-size="14.00">provider[&quot;registry.terraform.io/hashicorp/aws&quot;].myprovider2</text>
</g>
<!-- [root] data.aws_ami.myami_west (expand)&#45;&gt;[root] provider[&quot;registry.terraform.io/hashicorp/aws&quot;].myprovider2 -->
<g id="edge17" class="edge">
<title>[root] data.aws_ami.myami_west (expand)&#45;&gt;[root] provider[&quot;registry.terraform.io/hashicorp/aws&quot;].myprovider2</title>
<path fill="none" stroke="black" d="M2201.51,-71.88C2185.38,-62.23 2165.1,-50.1 2148.04,-39.89"/>
<polygon fill="black" stroke="black" points="2149.83,-36.88 2139.45,-34.75 2146.24,-42.89 2149.83,-36.88"/>
</g>
<!-- [root] data.aws_availability_zones.zone_east (expand)&#45;&gt;[root] provider[&quot;registry.terraform.io/hashicorp/aws&quot;] -->
<g id="edge18" class="edge">
<title>[root] data.aws_availability_zones.zone_east (expand)&#45;&gt;[root] provider[&quot;registry.terraform.io/hashicorp/aws&quot;]</title>
<path fill="none" stroke="black" d="M528.18,-71.88C554.47,-61.42 588.06,-48.06 614.91,-37.38"/>
<polygon fill="black" stroke="black" points="616.47,-40.53 624.47,-33.58 613.88,-34.03 616.47,-40.53"/>
</g>
<!-- [root] data.aws_availability_zones.zone_west (expand)&#45;&gt;[root] provider[&quot;registry.terraform.io/hashicorp/aws&quot;].myprovider2 -->
<g id="edge19" class="edge">
<title>[root] data.aws_availability_zones.zone_west (expand)&#45;&gt;[root] provider[&quot;registry.terraform.io/hashicorp/aws&quot;].myprovider2</title>
<path fill="none" stroke="black" d="M2024.75,-71.88C2040.88,-62.23 2061.15,-50.1 2078.21,-39.89"/>
<polygon fill="black" stroke="black" points="2080.02,-42.89 2086.8,-34.75 2076.42,-36.88 2080.02,-42.89"/>
</g>
<!-- [root] var.ec2_instance_name -->
<g id="node12" class="node">
<title>[root] var.ec2_instance_name</title>
<polygon fill="none" stroke="black" points="2160.13,-324 2006.13,-324 2006.13,-288 2166.13,-288 2166.13,-318 2160.13,-324"/>
<polyline fill="none" stroke="black" points="2160.13,-324 2160.13,-318 "/>
<polyline fill="none" stroke="black" points="2166.13,-318 2160.13,-318 "/>
<text text-anchor="middle" x="2086.13" y="-302.3" font-family="Times-Roman" font-size="14.00">var.ec2_instance_name</text>
</g>
<!-- [root] var.project&#45;name -->
<g id="node15" class="node">
<title>[root] var.project&#45;name</title>
<polygon fill="none" stroke="black" points="1148.13,-36 1036.13,-36 1036.13,0 1154.13,0 1154.13,-30 1148.13,-36"/>
<polyline fill="none" stroke="black" points="1148.13,-36 1148.13,-30 "/>
<polyline fill="none" stroke="black" points="1154.13,-30 1148.13,-30 "/>
<text text-anchor="middle" x="1095.13" y="-14.3" font-family="Times-Roman" font-size="14.00">var.project&#45;name</text>
</g>
<!-- [root] local.backend_east (expand)&#45;&gt;[root] var.project&#45;name -->
<g id="edge20" class="edge">
<title>[root] local.backend_east (expand)&#45;&gt;[root] var.project&#45;name</title>
<path fill="none" stroke="black" d="M1029.19,-72.05C1040.22,-63.18 1053.9,-52.17 1065.94,-42.48"/>
<polygon fill="black" stroke="black" points="1068.36,-45.03 1073.96,-36.03 1063.98,-39.57 1068.36,-45.03"/>
</g>
<!-- [root] local.backend_west (expand)&#45;&gt;[root] var.project&#45;name -->
<g id="edge21" class="edge">
<title>[root] local.backend_west (expand)&#45;&gt;[root] var.project&#45;name</title>
<path fill="none" stroke="black" d="M1600.82,-77.13C1476.39,-62.82 1270.82,-39.19 1164.15,-26.93"/>
<polygon fill="black" stroke="black" points="1164.48,-23.45 1154.14,-25.78 1163.68,-30.4 1164.48,-23.45"/>
</g>
<!-- [root] local.frontend_east (expand)&#45;&gt;[root] var.project&#45;name -->
<g id="edge22" class="edge">
<title>[root] local.frontend_east (expand)&#45;&gt;[root] var.project&#45;name</title>
<path fill="none" stroke="black" d="M636.41,-143.75C635.43,-123.42 637.3,-90.12 657.13,-72 660.51,-68.91 902.98,-40.89 1025.65,-26.89"/>
<polygon fill="black" stroke="black" points="1026.17,-30.35 1035.71,-25.74 1025.38,-23.4 1026.17,-30.35"/>
</g>
<!-- [root] local.frontend_west (expand)&#45;&gt;[root] var.project&#45;name -->
<g id="edge23" class="edge">
<title>[root] local.frontend_west (expand)&#45;&gt;[root] var.project&#45;name</title>
<path fill="none" stroke="black" d="M1298.67,-146.08C1267.79,-137.65 1231.8,-125.28 1202.13,-108 1181.74,-96.13 1181.11,-87.26 1163.13,-72 1151.37,-62.02 1138.07,-51.5 1126.37,-42.48"/>
<polygon fill="black" stroke="black" points="1128.24,-39.5 1118.17,-36.2 1123.99,-45.06 1128.24,-39.5"/>
</g>
<!-- [root] output.Backend_Public_ips_Rg1 (expand) -->
<g id="node20" class="node">
<title>[root] output.Backend_Public_ips_Rg1 (expand)</title>
<ellipse fill="none" stroke="black" cx="935.13" cy="-234" rx="197.66" ry="18"/>
<text text-anchor="middle" x="935.13" y="-230.3" font-family="Times-Roman" font-size="14.00">[root] output.Backend_Public_ips_Rg1 (expand)</text>
</g>
<!-- [root] output.Backend_Public_ips_Rg1 (expand)&#45;&gt;[root] aws_instance.back_east (expand) -->
<g id="edge24" class="edge">
<title>[root] output.Backend_Public_ips_Rg1 (expand)&#45;&gt;[root] aws_instance.back_east (expand)</title>
<path fill="none" stroke="black" d="M935.13,-215.7C935.13,-207.98 935.13,-198.71 935.13,-190.11"/>
<polygon fill="black" stroke="black" points="938.63,-190.1 935.13,-180.1 931.63,-190.1 938.63,-190.1"/>
</g>
<!-- [root] output.Backend_Public_ips_Rg2 (expand) -->
<g id="node21" class="node">
<title>[root] output.Backend_Public_ips_Rg2 (expand)</title>
<ellipse fill="none" stroke="black" cx="1917.13" cy="-234" rx="197.66" ry="18"/>
<text text-anchor="middle" x="1917.13" y="-230.3" font-family="Times-Roman" font-size="14.00">[root] output.Backend_Public_ips_Rg2 (expand)</text>
</g>
<!-- [root] output.Backend_Public_ips_Rg2 (expand)&#45;&gt;[root] aws_instance.back_west (expand) -->
<g id="edge25" class="edge">
<title>[root] output.Backend_Public_ips_Rg2 (expand)&#45;&gt;[root] aws_instance.back_west (expand)</title>
<path fill="none" stroke="black" d="M1883.12,-216.23C1863.9,-206.76 1839.68,-194.82 1819.05,-184.65"/>
<polygon fill="black" stroke="black" points="1820.37,-181.4 1809.85,-180.12 1817.27,-187.68 1820.37,-181.4"/>
</g>
<!-- [root] output.Frontend_Public_ips_Rg1 (expand) -->
<g id="node22" class="node">
<title>[root] output.Frontend_Public_ips_Rg1 (expand)</title>
<ellipse fill="none" stroke="black" cx="698.13" cy="-306" rx="198.47" ry="18"/>
<text text-anchor="middle" x="698.13" y="-302.3" font-family="Times-Roman" font-size="14.00">[root] output.Frontend_Public_ips_Rg1 (expand)</text>
</g>
<!-- [root] output.Frontend_Public_ips_Rg1 (expand)&#45;&gt;[root] aws_instance.front_east (expand) -->
<g id="edge26" class="edge">
<title>[root] output.Frontend_Public_ips_Rg1 (expand)&#45;&gt;[root] aws_instance.front_east (expand)</title>
<path fill="none" stroke="black" d="M683.3,-287.7C676.1,-279.3 667.33,-269.07 659.44,-259.86"/>
<polygon fill="black" stroke="black" points="661.95,-257.42 652.79,-252.1 656.64,-261.97 661.95,-257.42"/>
</g>
<!-- [root] output.Frontend_Public_ips_Rg2 (expand) -->
<g id="node23" class="node">
<title>[root] output.Frontend_Public_ips_Rg2 (expand)</title>
<ellipse fill="none" stroke="black" cx="1752.13" cy="-306" rx="198.47" ry="18"/>
<text text-anchor="middle" x="1752.13" y="-302.3" font-family="Times-Roman" font-size="14.00">[root] output.Frontend_Public_ips_Rg2 (expand)</text>
</g>
<!-- [root] output.Frontend_Public_ips_Rg2 (expand)&#45;&gt;[root] aws_instance.front_west (expand) -->
<g id="edge27" class="edge">
<title>[root] output.Frontend_Public_ips_Rg2 (expand)&#45;&gt;[root] aws_instance.front_west (expand)</title>
<path fill="none" stroke="black" d="M1674.46,-289.38C1621.74,-278.77 1551.79,-264.7 1496.25,-253.53"/>
<polygon fill="black" stroke="black" points="1496.9,-250.09 1486.41,-251.55 1495.52,-256.95 1496.9,-250.09"/>
</g>
<!-- [root] provider[&quot;registry.terraform.io/hashicorp/aws&quot;] (close) -->
<g id="node24" class="node">
<title>[root] provider[&quot;registry.terraform.io/hashicorp/aws&quot;] (close)</title>
<ellipse fill="none" stroke="black" cx="241.13" cy="-306" rx="241.26" ry="18"/>
<text text-anchor="middle" x="241.13" y="-302.3" font-family="Times-Roman" font-size="14.00">[root] provider[&quot;registry.terraform.io/hashicorp/aws&quot;] (close)</text>
</g>
<!-- [root] provider[&quot;registry.terraform.io/hashicorp/aws&quot;] (close)&#45;&gt;[root] aws_instance.front_east (expand) -->
<g id="edge28" class="edge">
<title>[root] provider[&quot;registry.terraform.io/hashicorp/aws&quot;] (close)&#45;&gt;[root] aws_instance.front_east (expand)</title>
<path fill="none" stroke="black" d="M330.72,-289.2C395.19,-277.84 481.87,-262.55 546.74,-251.11"/>
<polygon fill="black" stroke="black" points="547.72,-254.49 556.96,-249.31 546.51,-247.6 547.72,-254.49"/>
</g>
<!-- [root] provider[&quot;registry.terraform.io/hashicorp/aws&quot;].myprovider2 (close) -->
<g id="node25" class="node">
<title>[root] provider[&quot;registry.terraform.io/hashicorp/aws&quot;].myprovider2 (close)</title>
<ellipse fill="none" stroke="black" cx="1244.13" cy="-306" rx="291.65" ry="18"/>
<text text-anchor="middle" x="1244.13" y="-302.3" font-family="Times-Roman" font-size="14.00">[root] provider[&quot;registry.terraform.io/hashicorp/aws&quot;].myprovider2 (close)</text>
</g>
<!-- [root] provider[&quot;registry.terraform.io/hashicorp/aws&quot;].myprovider2 (close)&#45;&gt;[root] aws_instance.front_west (expand) -->
<g id="edge29" class="edge">
<title>[root] provider[&quot;registry.terraform.io/hashicorp/aws&quot;].myprovider2 (close)&#45;&gt;[root] aws_instance.front_west (expand)</title>
<path fill="none" stroke="black" d="M1282.86,-288.05C1304.81,-278.45 1332.46,-266.35 1355.82,-256.14"/>
<polygon fill="black" stroke="black" points="1357.44,-259.25 1365.2,-252.03 1354.63,-252.83 1357.44,-259.25"/>
</g>
<!-- [root] root -->
<g id="node26" class="node">
<title>[root] root</title>
<ellipse fill="none" stroke="black" cx="1244.13" cy="-378" rx="48.19" ry="18"/>
<text text-anchor="middle" x="1244.13" y="-374.3" font-family="Times-Roman" font-size="14.00">[root] root</text>
</g>
<!-- [root] root&#45;&gt;[root] var.ec2_instance_name -->
<g id="edge36" class="edge">
<title>[root] root&#45;&gt;[root] var.ec2_instance_name</title>
<path fill="none" stroke="black" d="M1292,-375.4C1410.87,-371.05 1728.94,-357.03 1992.13,-324 1993.4,-323.84 1994.68,-323.67 1995.97,-323.5"/>
<polygon fill="black" stroke="black" points="1996.55,-326.96 2005.97,-322.1 1995.57,-320.03 1996.55,-326.96"/>
</g>
<!-- [root] root&#45;&gt;[root] output.Backend_Public_ips_Rg1 (expand) -->
<g id="edge30" class="edge">
<title>[root] root&#45;&gt;[root] output.Backend_Public_ips_Rg1 (expand)</title>
<path fill="none" stroke="black" d="M1196.41,-375.43C1120.28,-371.85 976.51,-360.34 943.13,-324 928.09,-307.63 927.38,-281.72 929.67,-262.06"/>
<polygon fill="black" stroke="black" points="933.13,-262.56 931.13,-252.16 926.21,-261.54 933.13,-262.56"/>
</g>
<!-- [root] root&#45;&gt;[root] output.Backend_Public_ips_Rg2 (expand) -->
<g id="edge31" class="edge">
<title>[root] root&#45;&gt;[root] output.Backend_Public_ips_Rg2 (expand)</title>
<path fill="none" stroke="black" d="M1292.43,-377.13C1445.72,-377.04 1913.87,-372.74 1959.13,-324 1976.19,-305.62 1959.88,-279.06 1942.86,-259.74"/>
<polygon fill="black" stroke="black" points="1945.24,-257.16 1935.87,-252.21 1940.11,-261.92 1945.24,-257.16"/>
</g>
<!-- [root] root&#45;&gt;[root] output.Frontend_Public_ips_Rg1 (expand) -->
<g id="edge32" class="edge">
<title>[root] root&#45;&gt;[root] output.Frontend_Public_ips_Rg1 (expand)</title>
<path fill="none" stroke="black" d="M1199.45,-371.27C1116.83,-360.68 937.67,-337.71 817.46,-322.3"/>
<polygon fill="black" stroke="black" points="817.83,-318.82 807.47,-321.02 816.94,-325.76 817.83,-318.82"/>
</g>
<!-- [root] root&#45;&gt;[root] output.Frontend_Public_ips_Rg2 (expand) -->
<g id="edge33" class="edge">
<title>[root] root&#45;&gt;[root] output.Frontend_Public_ips_Rg2 (expand)</title>
<path fill="none" stroke="black" d="M1288.76,-370.85C1366.18,-360.18 1527.64,-337.93 1637.96,-322.73"/>
<polygon fill="black" stroke="black" points="1638.71,-326.16 1648.14,-321.33 1637.76,-319.23 1638.71,-326.16"/>
</g>
<!-- [root] root&#45;&gt;[root] provider[&quot;registry.terraform.io/hashicorp/aws&quot;] (close) -->
<g id="edge34" class="edge">
<title>[root] root&#45;&gt;[root] provider[&quot;registry.terraform.io/hashicorp/aws&quot;] (close)</title>
<path fill="none" stroke="black" d="M1197.1,-373.72C1060.41,-364.18 657.93,-336.09 421.03,-319.56"/>
<polygon fill="black" stroke="black" points="421.15,-316.06 410.93,-318.85 420.66,-323.04 421.15,-316.06"/>
</g>
<!-- [root] root&#45;&gt;[root] provider[&quot;registry.terraform.io/hashicorp/aws&quot;].myprovider2 (close) -->
<g id="edge35" class="edge">
<title>[root] root&#45;&gt;[root] provider[&quot;registry.terraform.io/hashicorp/aws&quot;].myprovider2 (close)</title>
<path fill="none" stroke="black" d="M1244.13,-359.7C1244.13,-351.98 1244.13,-342.71 1244.13,-334.11"/>
<polygon fill="black" stroke="black" points="1247.63,-334.1 1244.13,-324.1 1240.63,-334.1 1247.63,-334.1"/>
</g>
</g>
</svg>
