<?xml version="1.0" encoding="UTF-8" standalone="no"?>
<!DOCTYPE svg PUBLIC "-//W3C//DTD SVG 1.1//EN"
 "http://www.w3.org/Graphics/SVG/1.1/DTD/svg11.dtd">
<!-- Generated by graphviz version 2.44.0 (0)
 -->
<!-- Pages: 1 -->
<svg width="545pt" height="260pt"
 viewBox="0.00 0.00 544.79 260.00" xmlns="http://www.w3.org/2000/svg" xmlns:xlink="http://www.w3.org/1999/xlink">
<g id="graph0" class="graph" transform="scale(1 1) rotate(0) translate(4 256)">
<polygon fill="white" stroke="transparent" points="-4,4 -4,-256 540.79,-256 540.79,4 -4,4"/>
<!-- [root] aws_instance.db (expand) -->
<g id="node1" class="node">
<title>[root] aws_instance.db (expand)</title>
<polygon fill="none" stroke="black" points="256.89,-108 139.89,-108 139.89,-72 256.89,-72 256.89,-108"/>
<text text-anchor="middle" x="198.39" y="-86.3" font-family="Times-Roman" font-size="14.00">aws_instance.db</text>
</g>
<!-- [root] provider[&quot;registry.terraform.io/hashicorp/aws&quot;] -->
<g id="node3" class="node">
<title>[root] provider[&quot;registry.terraform.io/hashicorp/aws&quot;]</title>
<polygon fill="none" stroke="black" points="268.39,-36 0.11,-18 268.39,0 536.68,-18 268.39,-36"/>
<text text-anchor="middle" x="268.39" y="-14.3" font-family="Times-Roman" font-size="14.00">provider[&quot;registry.terraform.io/hashicorp/aws&quot;]</text>
</g>
<!-- [root] aws_instance.db (expand)&#45;&gt;[root] provider[&quot;registry.terraform.io/hashicorp/aws&quot;] -->
<g id="edge1" class="edge">
<title>[root] aws_instance.db (expand)&#45;&gt;[root] provider[&quot;registry.terraform.io/hashicorp/aws&quot;]</title>
<path fill="none" stroke="black" d="M215.7,-71.7C224.51,-62.88 235.36,-52.03 244.92,-42.47"/>
<polygon fill="black" stroke="black" points="247.65,-44.69 252.25,-35.14 242.7,-39.74 247.65,-44.69"/>
</g>
<!-- [root] aws_instance.web (expand) -->
<g id="node2" class="node">
<title>[root] aws_instance.web (expand)</title>
<polygon fill="none" stroke="black" points="401.89,-108 274.89,-108 274.89,-72 401.89,-72 401.89,-108"/>
<text text-anchor="middle" x="338.39" y="-86.3" font-family="Times-Roman" font-size="14.00">aws_instance.web</text>
</g>
<!-- [root] aws_instance.web (expand)&#45;&gt;[root] provider[&quot;registry.terraform.io/hashicorp/aws&quot;] -->
<g id="edge2" class="edge">
<title>[root] aws_instance.web (expand)&#45;&gt;[root] provider[&quot;registry.terraform.io/hashicorp/aws&quot;]</title>
<path fill="none" stroke="black" d="M321.09,-71.7C312.27,-62.88 301.42,-52.03 291.86,-42.47"/>
<polygon fill="black" stroke="black" points="294.08,-39.74 284.54,-35.14 289.13,-44.69 294.08,-39.74"/>
</g>
<!-- [root] provider[&quot;registry.terraform.io/hashicorp/aws&quot;] (close) -->
<g id="node4" class="node">
<title>[root] provider[&quot;registry.terraform.io/hashicorp/aws&quot;] (close)</title>
<ellipse fill="none" stroke="black" cx="268.39" cy="-162" rx="241.26" ry="18"/>
<text text-anchor="middle" x="268.39" y="-158.3" font-family="Times-Roman" font-size="14.00">[root] provider[&quot;registry.terraform.io/hashicorp/aws&quot;] (close)</text>
</g>
<!-- [root] provider[&quot;registry.terraform.io/hashicorp/aws&quot;] (close)&#45;&gt;[root] aws_instance.db (expand) -->
<g id="edge3" class="edge">
<title>[root] provider[&quot;registry.terraform.io/hashicorp/aws&quot;] (close)&#45;&gt;[root] aws_instance.db (expand)</title>
<path fill="none" stroke="black" d="M251.09,-143.7C242.53,-135.14 232.05,-124.66 222.7,-115.3"/>
<polygon fill="black" stroke="black" points="225.04,-112.7 215.5,-108.1 220.09,-117.65 225.04,-112.7"/>
</g>
<!-- [root] provider[&quot;registry.terraform.io/hashicorp/aws&quot;] (close)&#45;&gt;[root] aws_instance.web (expand) -->
<g id="edge4" class="edge">
<title>[root] provider[&quot;registry.terraform.io/hashicorp/aws&quot;] (close)&#45;&gt;[root] aws_instance.web (expand)</title>
<path fill="none" stroke="black" d="M285.7,-143.7C294.26,-135.14 304.74,-124.66 314.09,-115.3"/>
<polygon fill="black" stroke="black" points="316.69,-117.65 321.29,-108.1 311.74,-112.7 316.69,-117.65"/>
</g>
<!-- [root] root -->
<g id="node5" class="node">
<title>[root] root</title>
<ellipse fill="none" stroke="black" cx="268.39" cy="-234" rx="48.19" ry="18"/>
<text text-anchor="middle" x="268.39" y="-230.3" font-family="Times-Roman" font-size="14.00">[root] root</text>
</g>
<!-- [root] root&#45;&gt;[root] provider[&quot;registry.terraform.io/hashicorp/aws&quot;] (close) -->
<g id="edge5" class="edge">
<title>[root] root&#45;&gt;[root] provider[&quot;registry.terraform.io/hashicorp/aws&quot;] (close)</title>
<path fill="none" stroke="black" d="M268.39,-215.7C268.39,-207.98 268.39,-198.71 268.39,-190.11"/>
<polygon fill="black" stroke="black" points="271.89,-190.1 268.39,-180.1 264.89,-190.1 271.89,-190.1"/>
</g>
</g>
</svg>
